External Loads File
version=1
nRows=85
nColumns=13
Range=5.000000e-03-10 seconds
endheader
time 	forceRightX 	forceRightY 	forceRightZ 	pointRightX 	pointRightY 	pointRightZ 	forceLeftX 	forceLeftY 	forceLeftZ 	pointLeftX 	pointLeftY 	pointLeftZ 		
2.505000 64.775150 -143.088945 -0.000000 0.114583 0.240396 -0.165100 -279.324871 625.934823 -0.000000 0.380999 0.393925 -0.416451
2.510000 63.764825 -137.125098 -0.000000 0.112235 0.246170 -0.164999 -279.458966 641.708064 -0.000000 0.383355 0.388062 -0.416163
2.515000 62.562943 -131.500226 -0.000000 0.110169 0.251851 -0.164975 -279.680320 656.563218 -0.000000 0.385580 0.382130 -0.415878
2.520000 60.901529 -126.448465 -0.000000 0.108297 0.257943 -0.164986 -279.098866 670.632144 -0.000000 0.387339 0.376034 -0.415858
2.525000 58.794035 -122.043245 -0.000000 0.106478 0.264070 -0.165187 -277.868009 683.675169 -0.000000 0.389044 0.369758 -0.415929
2.530000 56.417376 -118.239469 -0.000000 0.105107 0.270166 -0.165268 -276.876879 695.265201 -0.000000 0.390631 0.363485 -0.415851
2.535000 53.645890 -115.081461 -0.000000 0.104015 0.276489 -0.165272 -275.276956 705.773300 -0.000000 0.392003 0.357116 -0.416027
2.540000 50.557618 -112.467240 -0.000000 0.103129 0.282849 -0.165325 -273.381316 715.175757 -0.000000 0.393314 0.350670 -0.416541
2.545000 47.264517 -110.271269 -0.000000 0.102497 0.289102 -0.165387 -271.613703 723.474593 -0.000000 0.394356 0.344077 -0.416279
2.550000 43.726715 -108.439033 -0.000000 0.102117 0.295694 -0.165494 -269.205217 731.166692 -0.000000 0.395173 0.337460 -0.415636
2.555000 40.135201 -106.806581 -0.000000 0.101965 0.302158 -0.165649 -266.865153 738.244462 -0.000000 0.395829 0.330668 -0.415670
2.560000 36.465207 -105.278658 -0.000000 0.102058 0.308772 -0.165752 -263.938768 745.243278 -0.000000 0.396278 0.323695 -0.415821
2.565000 32.965962 -103.655820 -0.000000 0.102585 0.315300 -0.165832 -261.827914 751.966149 -0.000000 0.396529 0.316887 -0.415800
2.570000 29.489656 -101.885871 -0.000000 0.103325 0.321948 -0.165933 -259.357329 759.106891 -0.000000 0.396574 0.309993 -0.415677
2.575000 26.103423 -99.864809 -0.000000 0.104270 0.328588 -0.165936 -257.055623 766.698529 -0.000000 0.396419 0.303099 -0.415654
2.580000 22.780868 -97.564490 -0.000000 0.105495 0.335205 -0.166068 -254.684076 774.945482 -0.000000 0.396002 0.296135 -0.415644
2.585000 19.547826 -95.015570 -0.000000 0.106897 0.341882 -0.166180 -252.105746 783.937241 -0.000000 0.395475 0.289138 -0.415855
2.590000 16.530625 -92.301061 -0.000000 0.108613 0.348457 -0.166323 -249.780988 793.530935 -0.000000 0.394514 0.282246 -0.415637
2.595000 13.658638 -89.573427 -0.000000 0.110449 0.355252 -0.166483 -246.478634 804.078534 -0.000000 0.393433 0.275274 -0.415564
2.600000 11.168498 -86.912587 -0.000000 0.112550 0.361711 -0.166569 -243.903706 814.965118 -0.000000 0.392068 0.268448 -0.415480
2.605000 8.849841 -84.403976 -0.000000 0.114975 0.368336 -0.166696 -240.044320 826.627791 -0.000000 0.390417 0.261613 -0.415381
2.610000 6.701878 -82.026285 -0.000000 0.117594 0.375171 -0.166785 -234.860759 838.763208 -0.000000 0.388503 0.254856 -0.415301
2.615000 4.886394 -79.705327 -0.000000 0.120542 0.381303 -0.166881 -230.164638 850.479856 -0.000000 0.386376 0.248149 -0.415193
2.620000 3.157442 -77.395439 -0.000000 0.123646 0.387639 -0.166981 -223.636471 862.003674 -0.000000 0.383922 0.241587 -0.415151
2.625000 1.531433 -75.058583 -0.000000 0.126933 0.393870 -0.167060 -215.562488 872.794581 -0.000000 0.381212 0.235048 -0.415061
2.630000 -0.001525 -72.697646 -0.000000 0.130537 0.400033 -0.167083 -205.840796 882.409461 -0.000000 0.378285 0.228633 -0.414965
2.635000 -1.378570 -70.336318 -0.000000 0.134350 0.405994 -0.167000 -195.167121 890.248191 -0.000000 0.375055 0.222494 -0.414890
2.640000 -2.684821 -67.993294 -0.000000 0.138470 0.411979 -0.167200 -182.467176 896.155395 -0.000000 0.371604 0.216392 -0.414849
2.645000 -3.836981 -65.680268 -0.000000 0.142848 0.417763 -0.167037 -169.028613 899.496899 -0.000000 0.367945 0.210512 -0.414777
2.650000 -4.847154 -63.404549 -0.000000 0.147194 0.423425 -0.167284 -155.100562 899.867297 -0.000000 0.364055 0.204769 -0.414696
2.655000 -5.751172 -61.161391 -0.000000 0.151850 0.428915 -0.167414 -140.406857 896.889133 -0.000000 0.359982 0.199225 -0.414594
2.660000 -6.501262 -58.933609 -0.000000 0.156611 0.434077 -0.167521 -125.695334 890.029301 -0.000000 0.355767 0.193890 -0.414499
2.665000 -7.166884 -56.681023 -0.000000 0.161521 0.439223 -0.167691 -110.041499 879.112238 -0.000000 0.351343 0.188696 -0.414389
2.670000 -7.772660 -54.371317 -0.000000 0.166940 0.444307 -0.167762 -93.257024 863.936954 -0.000000 0.346760 0.183786 -0.414198
2.675000 -8.195786 -52.007939 -0.000000 0.171986 0.449213 -0.168014 -77.586476 844.193856 -0.000000 0.342037 0.179098 -0.414070
2.680000 -8.568540 -49.578473 -0.000000 0.177597 0.453803 -0.168067 -61.332554 820.173789 -0.000000 0.337132 0.174640 -0.413906
2.685000 -8.856281 -47.130435 -0.000000 0.183134 0.458340 -0.168500 -45.782952 792.003468 -0.000000 0.332118 0.170325 -0.413764
2.690000 -9.111410 -44.744230 -0.000000 0.188890 0.462176 -0.168580 -31.401483 760.008654 -0.000000 0.326937 0.166352 -0.413634
2.695000 -9.487296 -42.523358 -0.000000 0.194840 0.465902 -0.168741 -17.534997 724.632021 -0.000000 0.321631 0.162584 -0.413499
2.700000 -10.117639 -40.608226 -0.000000 0.201098 0.469426 -0.169041 -4.224024 686.289673 -0.000000 0.316208 0.159048 -0.413377
2.705000 -11.111365 -39.156802 -0.000000 0.207386 0.472816 -0.169289 7.917108 645.400841 -0.000000 0.310678 0.155784 -0.413253
2.710000 -12.622413 -38.280437 -0.000000 0.213810 0.475948 -0.169702 19.111510 602.396191 -0.000000 0.305000 0.152791 -0.413161
2.715000 -14.771615 -38.018555 -0.000000 0.220399 0.478811 -0.169672 29.435351 557.687244 -0.000000 0.299162 0.150031 -0.413066
2.720000 -17.603912 -38.327977 -0.000000 0.226931 0.481479 -0.169936 38.570289 511.716759 -0.000000 0.293165 0.147521 -0.413020
2.725000 -21.132845 -39.037034 -0.000000 0.233630 0.483906 -0.170092 46.659390 464.973583 -0.000000 0.287040 0.145376 -0.412983
2.730000 -25.282084 -39.864179 -0.000000 0.240351 0.486014 -0.170176 53.410198 418.089634 -0.000000 0.280751 0.143477 -0.413008
2.735000 -29.947953 -40.430850 -0.000000 0.247262 0.487856 -0.170109 58.721411 371.787929 -0.000000 0.274388 0.141948 -0.412978
2.740000 -34.901736 -40.390258 -0.000000 0.253677 0.489426 -0.170114 61.745371 326.990105 -0.000000 0.267971 0.140724 -0.413027
2.745000 -40.020275 -39.281086 -0.000000 0.260272 0.490882 -0.169974 63.105011 284.388461 -0.000000 0.261580 0.139730 -0.413083
2.750000 -45.043351 -36.718336 -0.000000 0.266902 0.491604 -0.169748 62.751614 244.693730 -0.000000 0.255117 0.139003 -0.413111
2.755000 -49.659237 -32.373010 -0.000000 0.273384 0.492326 -0.169589 60.725754 208.481062 -0.000000 0.248591 0.138589 -0.413203
2.760000 -53.560168 -25.956148 -0.000000 0.279675 0.492789 -0.169444 57.194105 176.109165 -0.000000 0.242261 0.138481 -0.413160
2.765000 -56.534512 -17.083087 -0.000000 0.285774 0.493099 -0.169370 52.663695 147.577790 -0.000000 0.236008 0.138614 -0.413099
2.770000 -58.440516 -5.280549 -0.000000 0.291623 0.493030 -0.169282 47.606397 122.647879 -0.000000 0.229751 0.139055 -0.413049
2.775000 -59.234872 9.984952 -0.000000 0.297132 0.492921 -0.169270 42.370644 100.936591 -0.000000 0.223619 0.139742 -0.412863
2.780000 -59.007198 29.433371 -0.000000 0.302417 0.492520 -0.169440 37.409203 81.874654 -0.000000 0.217679 0.140897 -0.412306
2.785000 -57.955814 53.852229 -0.000000 0.307345 0.491911 -0.169309 33.066675 64.864616 -0.000000 0.211803 0.142445 -0.411846
2.790000 -56.382721 84.029450 -0.000000 0.311775 0.491016 -0.169224 29.683331 49.284540 -0.000000 0.205876 0.144083 -0.411745
2.795000 -54.603871 120.618949 -0.000000 0.315778 0.489680 -0.169001 27.584069 34.472163 -0.000000 0.199908 0.146026 -0.411642
2.800000 -52.905058 163.861433 -0.000000 0.319652 0.487997 -0.168748 26.936207 19.845562 -0.000000 0.194047 0.148467 -0.411387
2.805000 -51.670938 213.274188 -0.000000 0.323313 0.486055 -0.168461 27.709237 5.045769 -0.000000 0.188218 0.151310 -0.411171
2.810000 -51.233807 267.621630 -0.000000 0.326870 0.483843 -0.168288 29.703062 -10.080487 -0.000000 0.182418 0.154576 -0.410835
2.815000 -51.660427 325.166284 -0.000000 0.330522 0.481229 -0.168112 32.477338 -25.513114 -0.000000 0.176538 0.158445 -0.410318
2.820000 -53.618623 383.819381 -0.000000 0.334268 0.478144 -0.167969 35.448284 -40.941839 -0.000000 0.170843 0.162566 -0.409813
2.825000 -57.421081 441.386070 -0.000000 0.338232 0.474560 -0.167939 37.978850 -55.891554 -0.000000 0.165307 0.166813 -0.409683
2.830000 -64.000929 495.474850 -0.000000 0.342288 0.470579 -0.167906 39.640500 -69.752304 -0.000000 0.160183 0.170968 -0.409485
2.835000 -72.850003 543.998671 -0.000000 0.346583 0.466091 -0.167865 40.126119 -82.066809 -0.000000 0.155341 0.175361 -0.409158
2.840000 -84.208890 585.132801 -0.000000 0.350823 0.461382 -0.167784 39.629121 -92.423337 -0.000000 0.150762 0.180126 -0.408774
2.845000 -96.889591 617.784892 -0.000000 0.355243 0.456167 -0.167716 38.448462 -100.692392 -0.000000 0.146343 0.185184 -0.408427
2.850000 -111.126522 641.299904 -0.000000 0.359391 0.450763 -0.167349 37.253146 -106.811991 -0.000000 0.142033 0.190525 -0.408122
2.855000 -125.241328 656.026765 -0.000000 0.363994 0.445150 -0.167459 36.404851 -110.879674 -0.000000 0.137818 0.196023 -0.407795
2.860000 -139.386610 662.673470 -0.000000 0.368438 0.439436 -0.167473 36.484884 -112.847152 -0.000000 0.133736 0.201952 -0.407441
2.865000 -152.751710 662.669423 -0.000000 0.372787 0.433406 -0.167492 37.755555 -112.726492 -0.000000 0.129759 0.208148 -0.407213
2.870000 -165.304433 657.625235 -0.000000 0.377058 0.426997 -0.167482 40.408671 -110.564956 -0.000000 0.125953 0.214264 -0.407161
2.875000 -176.684117 649.331478 -0.000000 0.381296 0.420439 -0.167517 44.370289 -106.561855 -0.000000 0.122301 0.220491 -0.407206
2.880000 -186.643026 639.523717 -0.000000 0.385322 0.413625 -0.167482 49.388487 -101.074277 -0.000000 0.118865 0.226999 -0.407338
2.885000 -195.940839 629.521136 -0.000000 0.388957 0.406711 -0.167480 55.231073 -94.495682 -0.000000 0.115670 0.233580 -0.407504
2.890000 -203.978881 620.827638 -0.000000 0.392318 0.399495 -0.167488 61.428110 -87.338158 -0.000000 0.112742 0.240269 -0.407646
2.895000 -210.830632 614.475074 -0.000000 0.395270 0.392220 -0.167416 67.683809 -80.023993 -0.000000 0.110006 0.247229 -0.407719
2.900000 -216.356311 611.246650 -0.000000 0.397911 0.384713 -0.167361 73.743353 -72.948195 -0.000000 0.107627 0.254326 -0.407739
2.905000 -220.490642 611.571237 -0.000000 0.400315 0.377156 -0.167404 79.422551 -66.433106 -0.000000 0.105546 0.261638 -0.407805
2.910000 -223.027422 615.614260 -0.000000 0.402105 0.369312 -0.167319 84.566130 -60.726542 -0.000000 0.103822 0.269131 -0.407727
2.915000 -224.615912 622.980974 -0.000000 0.403540 0.361513 -0.167180 89.103888 -55.856398 -0.000000 0.102432 0.276614 -0.407719
2.920000 -224.362115 633.660810 -0.000000 0.404581 0.353584 -0.167053 92.815588 -51.973837 -0.000000 0.101448 0.284354 -0.407672
2.925000 -222.781152 646.996568 -0.000000 0.405298 0.345562 -0.166864 95.672804 -48.967626 -0.000000 0.100800 0.292060 -0.407640
